<svg width="800" height="800" viewBox="0 0 800 800" xmlns="http://www.w3.org/2000/svg">
<defs>
  <symbol id="s4" viewBox="-10 -10 20 20"><path fill-rule="evenodd" d="M0,-10 C-1,-3 -3,-1 -10,0 C-3,1 -1,3 0,10 C1,3 3,1 10,0 C3,-1 1,-3 0,-10Z"/></symbol>
  <symbol id="s4b" viewBox="-10 -10 20 20"><path fill-rule="evenodd" d="M0,-10 C-2,-3 -3,-2 -10,0 C-3,2 -2,3 0,10 C2,3 3,2 10,0 C3,-2 2,-3 0,-10Z"/></symbol>
</defs>
<rect width="800" height="800" fill="#fffef9"/>
<use href="#s4" x="483.9" y="10.8" width="27.0" height="27.0" fill="#d5b530" opacity="0.79"/>
<use href="#s4" x="69.9" y="176.9" width="14.4" height="14.4" fill="#d5b530" opacity="0.74"/>
<use href="#s4b" x="584.3" y="122.9" width="10.0" height="10.0" fill="#d8b82a" opacity="0.92"/>
<use href="#s4" x="618.4" y="558.9" width="16.1" height="16.1" fill="#cba828" opacity="0.93"/>
<use href="#s4b" x="534.9" y="27.6" width="25.3" height="25.3" fill="#cfa020" opacity="0.85"/>
<use href="#s4b" x="123.0" y="271.3" width="14.4" height="14.4" fill="#b88018" opacity="0.73"/>
<use href="#s4" x="292.2" y="761.9" width="10.0" height="10.0" fill="#d8b82a" opacity="0.78"/>
<use href="#s4" x="150.4" y="714.0" width="34.0" height="34.0" fill="#b89020" opacity="0.73"/>
<use href="#s4" x="569.3" y="410.6" width="18.7" height="18.7" fill="#c8a010" opacity="0.81"/>
<use href="#s4" x="655.5" y="110.1" width="25.2" height="25.2" fill="#c8a010" opacity="0.73"/>
<use href="#s4b" x="523.8" y="88.2" width="10.0" height="10.0" fill="#cfa020" opacity="0.65"/>
<use href="#s4" x="746.7" y="585.1" width="13.3" height="13.3" fill="#d8b82a" opacity="0.89"/>
<use href="#s4" x="461.2" y="376.2" width="10.0" height="10.0" fill="#d5b530" opacity="0.95"/>
<use href="#s4b" x="558.6" y="623.4" width="19.9" height="19.9" fill="#c0980a" opacity="0.82"/>
<use href="#s4b" x="728.8" y="701.5" width="37.6" height="37.6" fill="#cfa020" opacity="0.94"/>
<use href="#s4" x="93.2" y="173.0" width="10.0" height="10.0" fill="#c9a020" opacity="0.72"/>
<use href="#s4b" x="649.1" y="41.7" width="35.7" height="35.7" fill="#d5b530" opacity="0.80"/>
<use href="#s4" x="619.2" y="144.1" width="15.1" height="15.1" fill="#be9010" opacity="0.96"/>
<use href="#s4" x="43.4" y="557.4" width="16.6" height="16.6" fill="#c0980a" opacity="0.80"/>
<use href="#s4b" x="323.1" y="645.1" width="46.2" height="46.2" fill="#dfc038" opacity="0.73"/>
<use href="#s4b" x="370.2" y="160.8" width="17.5" height="17.5" fill="#cfa020" opacity="0.74"/>
<use href="#s4" x="119.2" y="228.5" width="10.0" height="10.0" fill="#cfa020" opacity="0.81"/>
<use href="#s4" x="36.3" y="383.5" width="25.1" height="25.1" fill="#d5b530" opacity="0.73"/>
<use href="#s4b" x="472.4" y="318.2" width="19.1" height="19.1" fill="#c0980a" opacity="0.78"/>
<use href="#s4" x="348.3" y="711.6" width="17.5" height="17.5" fill="#e0c040" opacity="0.81"/>
<use href="#s4" x="709.7" y="669.4" width="27.8" height="27.8" fill="#cfaa25" opacity="0.86"/>
<use href="#s4b" x="514.3" y="427.0" width="10.0" height="10.0" fill="#c8a010" opacity="0.70"/>
<use href="#s4b" x="461.3" y="548.2" width="18.8" height="18.8" fill="#c9a020" opacity="0.68"/>
<use href="#s4" x="630.0" y="25.3" width="27.2" height="27.2" fill="#b07818" opacity="0.83"/>
<use href="#s4" x="53.3" y="675.3" width="19.3" height="19.3" fill="#c9a020" opacity="0.75"/>
<use href="#s4" x="677.0" y="146.6" width="40.4" height="40.4" fill="#cba828" opacity="0.95"/>
<use href="#s4" x="744.5" y="617.1" width="24.3" height="24.3" fill="#be9010" opacity="0.93"/>
<use href="#s4" x="202.0" y="602.8" width="17.0" height="17.0" fill="#d8b82a" opacity="0.75"/>
<use href="#s4b" x="168.8" y="505.3" width="15.8" height="15.8" fill="#be9010" opacity="0.96"/>
<use href="#s4b" x="723.2" y="88.8" width="10.0" height="10.0" fill="#d8b82a" opacity="0.88"/>
<use href="#s4" x="335.2" y="757.1" width="11.6" height="11.6" fill="#cba828" opacity="0.91"/>
<use href="#s4b" x="275.6" y="49.0" width="19.8" height="19.8" fill="#c0980a" opacity="0.86"/>
<use href="#s4" x="306.4" y="224.2" width="16.8" height="16.8" fill="#d5b530" opacity="0.75"/>
<use href="#s4" x="232.8" y="160.6" width="12.4" height="12.4" fill="#cfa020" opacity="0.90"/>
<use href="#s4" x="503.9" y="215.1" width="16.9" height="16.9" fill="#e0c040" opacity="0.70"/>
<use href="#s4" x="180.3" y="357.6" width="26.5" height="26.5" fill="#b07818" opacity="0.81"/>
<use href="#s4" x="110.5" y="526.4" width="16.2" height="16.2" fill="#b88018" opacity="0.82"/>
<use href="#s4b" x="416.5" y="693.7" width="35.5" height="35.5" fill="#cfaa25" opacity="0.94"/>
<use href="#s4b" x="626.7" y="409.1" width="35.6" height="35.6" fill="#c0980a" opacity="0.90"/>
<use href="#s4" x="479.4" y="208.3" width="16.3" height="16.3" fill="#b89020" opacity="0.72"/>
<use href="#s4" x="536.5" y="42.1" width="24.8" height="24.8" fill="#cfaa25" opacity="0.84"/>
<use href="#s4" x="643.3" y="573.2" width="42.7" height="42.7" fill="#b07818" opacity="0.82"/>
<use href="#s4" x="363.6" y="197.9" width="34.6" height="34.6" fill="#cba828" opacity="0.69"/>
<use href="#s4b" x="698.3" y="455.8" width="10.0" height="10.0" fill="#d8b82a" opacity="0.72"/>
<use href="#s4b" x="253.0" y="670.4" width="23.8" height="23.8" fill="#c9a020" opacity="0.97"/>
<use href="#s4b" x="172.7" y="52.8" width="10.0" height="10.0" fill="#b89020" opacity="0.73"/>
<use href="#s4" x="503.8" y="422.6" width="33.4" height="33.4" fill="#b88018" opacity="0.69"/>
<use href="#s4" x="737.5" y="77.9" width="20.7" height="20.7" fill="#d4b030" opacity="0.84"/>
<use href="#s4" x="72.2" y="588.6" width="22.4" height="22.4" fill="#b07818" opacity="0.86"/>
<use href="#s4" x="379.0" y="252.2" width="31.2" height="31.2" fill="#b88018" opacity="0.70"/>
<use href="#s4" x="557.5" y="735.9" width="25.1" height="25.1" fill="#d5b530" opacity="0.74"/>
<use href="#s4" x="634.8" y="61.9" width="19.7" height="19.7" fill="#cfa020" opacity="0.92"/>
<use href="#s4b" x="369.8" y="267.6" width="21.3" height="21.3" fill="#e0c040" opacity="0.68"/>
<use href="#s4b" x="376.2" y="583.8" width="10.0" height="10.0" fill="#b88018" opacity="0.73"/>
<use href="#s4" x="362.2" y="406.6" width="14.5" height="14.5" fill="#e0c040" opacity="0.69"/>
<use href="#s4b" x="236.1" y="565.2" width="23.7" height="23.7" fill="#cfaa25" opacity="0.82"/>
<use href="#s4" x="752.3" y="638.4" width="15.4" height="15.4" fill="#c9a020" opacity="0.83"/>
<use href="#s4b" x="490.2" y="578.7" width="11.8" height="11.8" fill="#c9a020" opacity="0.73"/>
<use href="#s4" x="87.3" y="49.8" width="11.1" height="11.1" fill="#c0980a" opacity="0.68"/>
<use href="#s4b" x="84.4" y="581.8" width="23.6" height="23.6" fill="#c0980a" opacity="0.93"/>
<use href="#s4" x="231.6" y="474.7" width="17.0" height="17.0" fill="#d4b030" opacity="0.70"/>
<use href="#s4" x="422.4" y="117.9" width="15.3" height="15.3" fill="#b88018" opacity="0.93"/>
<use href="#s4b" x="525.1" y="707.2" width="18.4" height="18.4" fill="#be9010" opacity="0.70"/>
<use href="#s4b" x="627.3" y="45.8" width="28.5" height="28.5" fill="#cfa020" opacity="0.87"/>
<use href="#s4" x="716.6" y="376.1" width="28.5" height="28.5" fill="#c9a020" opacity="0.68"/>
<use href="#s4b" x="765.3" y="513.3" width="18.7" height="18.7" fill="#c0980a" opacity="0.71"/>
<use href="#s4b" x="488.8" y="378.6" width="10.0" height="10.0" fill="#b07818" opacity="0.87"/>
<use href="#s4" x="504.0" y="302.1" width="22.5" height="22.5" fill="#b07818" opacity="0.93"/>
<use href="#s4" x="496.8" y="408.2" width="29.1" height="29.1" fill="#e0c040" opacity="0.74"/>
<use href="#s4b" x="702.6" y="325.6" width="33.4" height="33.4" fill="#c0980a" opacity="0.83"/>
<use href="#s4b" x="64.8" y="757.0" width="24.0" height="24.0" fill="#c8a010" opacity="0.88"/>
<use href="#s4b" x="633.9" y="745.9" width="27.8" height="27.8" fill="#dfc038" opacity="0.67"/>
<use href="#s4b" x="254.1" y="598.9" width="25.3" height="25.3" fill="#dfc038" opacity="0.70"/>
<use href="#s4b" x="259.2" y="418.5" width="23.0" height="23.0" fill="#b07818" opacity="0.72"/>
<use href="#s4" x="22.8" y="562.7" width="31.5" height="31.5" fill="#b89020" opacity="0.81"/>
<use href="#s4" x="92.6" y="738.7" width="19.2" height="19.2" fill="#b88018" opacity="0.70"/>
<use href="#s4b" x="42.9" y="587.0" width="39.5" height="39.5" fill="#dfc038" opacity="0.82"/>
<use href="#s4b" x="471.0" y="671.7" width="33.3" height="33.3" fill="#e0c040" opacity="0.89"/>
<use href="#s4b" x="750.7" y="582.8" width="15.3" height="15.3" fill="#cfaa25" opacity="0.67"/>
<use href="#s4" x="287.5" y="110.9" width="12.4" height="12.4" fill="#b07818" opacity="0.85"/>
<use href="#s4" x="383.2" y="449.0" width="10.0" height="10.0" fill="#cba828" opacity="0.74"/>
<use href="#s4b" x="53.0" y="723.9" width="17.8" height="17.8" fill="#e0c040" opacity="0.97"/>
<use href="#s4" x="68.4" y="280.0" width="37.4" height="37.4" fill="#c0980a" opacity="0.65"/>
<use href="#s4b" x="696.8" y="569.4" width="18.7" height="18.7" fill="#be9010" opacity="0.71"/>
<use href="#s4b" x="517.6" y="550.9" width="18.5" height="18.5" fill="#cfa020" opacity="0.66"/>
<use href="#s4b" x="550.0" y="55.5" width="37.9" height="37.9" fill="#d8b82a" opacity="0.82"/>
<use href="#s4" x="625.1" y="183.5" width="38.7" height="38.7" fill="#cfa020" opacity="0.96"/>
<use href="#s4" x="575.2" y="168.2" width="21.0" height="21.0" fill="#c9a020" opacity="0.73"/>
<use href="#s4b" x="350.2" y="518.1" width="10.0" height="10.0" fill="#c9a020" opacity="0.85"/>
<use href="#s4b" x="702.9" y="168.6" width="13.7" height="13.7" fill="#c9a020" opacity="0.95"/>
<use href="#s4" x="756.8" y="79.3" width="30.2" height="30.2" fill="#c8a010" opacity="0.78"/>
<use href="#s4" x="681.8" y="504.3" width="10.0" height="10.0" fill="#cfa020" opacity="0.79"/>
<use href="#s4b" x="658.7" y="76.5" width="10.0" height="10.0" fill="#d4b030" opacity="0.95"/>
<use href="#s4" x="70.6" y="163.3" width="10.0" height="10.0" fill="#d5b530" opacity="0.72"/>
<use href="#s4b" x="451.5" y="626.1" width="10.0" height="10.0" fill="#b89020" opacity="0.97"/>
<use href="#s4b" x="614.6" y="84.4" width="10.4" height="10.4" fill="#c0980a" opacity="0.67"/>
<use href="#s4b" x="403.7" y="572.8" width="12.8" height="12.8" fill="#d5b530" opacity="0.66"/>
<use href="#s4" x="352.0" y="741.6" width="11.4" height="11.4" fill="#cfa020" opacity="0.67"/>
<use href="#s4b" x="241.6" y="107.8" width="22.9" height="22.9" fill="#c8a010" opacity="0.74"/>
<use href="#s4b" x="68.0" y="532.0" width="26.8" height="26.8" fill="#cba828" opacity="0.72"/>
<use href="#s4" x="637.0" y="306.9" width="10.2" height="10.2" fill="#cba828" opacity="0.80"/>
<use href="#s4" x="639.5" y="70.8" width="12.0" height="12.0" fill="#c8a010" opacity="0.76"/>
<use href="#s4" x="303.8" y="660.1" width="35.1" height="35.1" fill="#d8b82a" opacity="0.68"/>
<use href="#s4" x="109.9" y="362.1" width="28.4" height="28.4" fill="#cfaa25" opacity="0.79"/>
<use href="#s4b" x="461.1" y="498.7" width="25.6" height="25.6" fill="#b89020" opacity="0.93"/>
<use href="#s4b" x="51.4" y="568.3" width="14.4" height="14.4" fill="#d8b82a" opacity="0.75"/>
<use href="#s4b" x="598.2" y="437.0" width="10.0" height="10.0" fill="#cfa020" opacity="0.86"/>
<use href="#s4b" x="464.2" y="315.7" width="16.5" height="16.5" fill="#cfa020" opacity="0.82"/>
<use href="#s4" x="23.0" y="292.4" width="34.0" height="34.0" fill="#c0980a" opacity="0.75"/>
<use href="#s4" x="369.3" y="317.9" width="37.5" height="37.5" fill="#d4b030" opacity="0.78"/>
<use href="#s4b" x="329.5" y="347.6" width="22.7" height="22.7" fill="#d4b030" opacity="0.78"/>
<use href="#s4" x="127.0" y="724.4" width="20.6" height="20.6" fill="#d5b530" opacity="0.78"/>
<use href="#s4b" x="297.9" y="232.1" width="23.7" height="23.7" fill="#e0c040" opacity="0.94"/>
<use href="#s4" x="268.9" y="736.4" width="12.9" height="12.9" fill="#cfaa25" opacity="0.89"/>
<use href="#s4b" x="124.3" y="583.0" width="34.2" height="34.2" fill="#be9010" opacity="0.85"/>
</svg>
